<svg width="10" height="11" viewBox="0 0 10 11" fill="none" xmlns="http://www.w3.org/2000/svg">
<path d="M9.91351 10.3418L7.48281 7.91167C8.13484 7.16223 8.52961 6.1844 8.52961 5.11566C8.52961 2.76311 6.61566 0.851807 4.2648 0.851807C1.91173 0.851807 0 2.76533 0 5.11566C0 7.466 1.91395 9.37952 4.2648 9.37952C5.33378 9.37952 6.31182 8.98484 7.06143 8.33296L9.49213 10.7631C9.54979 10.8208 9.62741 10.8518 9.70282 10.8518C9.77822 10.8518 9.85584 10.823 9.91351 10.7631C10.0288 10.6478 10.0288 10.4571 9.91351 10.3418ZM0.596585 5.11566C0.596585 3.09349 2.24218 1.45048 4.26259 1.45048C6.28521 1.45048 7.92859 3.09571 7.92859 5.11566C7.92859 7.13562 6.28521 8.78307 4.26259 8.78307C2.24218 8.78307 0.596585 7.13784 0.596585 5.11566Z" fill="white" fill-opacity="0.8"/>
</svg>
