<svg width="33" height="50" viewBox="0 0 33 50" fill="none" xmlns="http://www.w3.org/2000/svg">
<path d="M16.3854 0C7.35041 0 0 7.34561 0 16.3747C0 25.0522 14.8908 48.5324 15.5247 49.5278C15.712 49.8218 16.0366 50 16.3854 50C16.7342 50 17.0588 49.8218 17.246 49.5278C17.8799 48.5324 32.7706 25.0521 32.7706 16.3747C32.7706 7.34561 25.4202 0 16.3854 0Z" fill="#E36E40"/>
<path d="M15.7135 21.84H15.7935C15.8682 21.84 15.9375 21.808 16.0015 21.744C16.0655 21.68 16.1188 21.6053 16.1615 21.52C16.2148 21.4347 16.2522 21.344 16.2735 21.248C16.2948 21.1413 16.3055 21.0453 16.3055 20.96V12.544L12.1775 22.176L8.2575 13.04V20.96C8.2575 21.0453 8.26816 21.1413 8.2895 21.248C8.31083 21.344 8.34283 21.4347 8.3855 21.52C8.43883 21.6053 8.4975 21.68 8.5615 21.744C8.6255 21.808 8.70016 21.84 8.7855 21.84H8.8655V22H7.1215V21.84H7.2015C7.27616 21.84 7.3455 21.808 7.4095 21.744C7.4735 21.68 7.52683 21.6053 7.5695 21.52C7.61216 21.4347 7.64416 21.344 7.6655 21.248C7.68683 21.1413 7.6975 21.0453 7.6975 20.96V12.432C7.6975 12.3573 7.68683 12.272 7.6655 12.176C7.64416 12.08 7.61216 11.9893 7.5695 11.904C7.52683 11.8187 7.4735 11.7493 7.4095 11.696C7.3455 11.632 7.27616 11.6 7.2015 11.6H7.1215V11.44H8.7535L12.4655 20.192L16.1775 11.44H17.9855V11.6H17.9055C17.8202 11.6 17.7455 11.632 17.6815 11.696C17.6175 11.7493 17.5588 11.8187 17.5055 11.904C17.4628 11.9893 17.4308 12.08 17.4095 12.176C17.3882 12.272 17.3775 12.3573 17.3775 12.432V20.96C17.3775 21.0453 17.3882 21.1413 17.4095 21.248C17.4308 21.344 17.4628 21.4347 17.5055 21.52C17.5588 21.6053 17.6175 21.68 17.6815 21.744C17.7455 21.808 17.8202 21.84 17.9055 21.84H17.9855V22H15.7135V21.84ZM19.543 21.84H19.623C19.7083 21.84 19.783 21.8133 19.847 21.76C19.911 21.696 19.9643 21.6213 20.007 21.536C20.0603 21.4507 20.0977 21.36 20.119 21.264C20.151 21.168 20.167 21.0773 20.167 20.992V12.432C20.167 12.3573 20.151 12.272 20.119 12.176C20.0977 12.08 20.0603 11.9893 20.007 11.904C19.9643 11.8187 19.911 11.7493 19.847 11.696C19.783 11.632 19.7083 11.6 19.623 11.6H19.543V11.44H21.847V11.6H21.767C21.6817 11.6 21.607 11.632 21.543 11.696C21.479 11.7493 21.4257 11.8187 21.383 11.904C21.3403 11.9893 21.303 12.08 21.271 12.176C21.2497 12.272 21.239 12.3573 21.239 12.432V21.408H24.743C24.9457 21.408 25.1217 21.36 25.271 21.264C25.4203 21.168 25.543 21.0507 25.639 20.912C25.7457 20.7627 25.8203 20.608 25.863 20.448C25.9163 20.2773 25.943 20.1227 25.943 19.984H26.103V22H19.543V21.84Z" fill="black"/>
</svg>
