<svg width="25" height="25" viewBox="0 0 25 25" fill="none" xmlns="http://www.w3.org/2000/svg">
<path d="M22.2 17.4001C20.5795 16.1084 18.935 15.326 17.3344 16.6158L16.3787 17.3953C15.6794 17.9611 14.3793 20.605 9.35253 15.2158C4.32683 9.83331 7.31755 8.99526 8.01786 8.43429L8.97882 7.6538C10.571 6.36112 9.97015 4.7338 8.8218 3.05868L8.12882 2.04404C6.97524 0.372825 5.71908 -0.724736 4.1227 0.565996L3.26013 1.26843C2.55459 1.74746 0.582408 3.30453 0.104018 6.26258C-0.471724 9.81185 1.34448 13.8762 5.50553 18.3358C9.66134 22.7972 13.7303 25.0382 17.5846 24.9992C20.7878 24.967 22.7223 23.365 23.3274 22.7826L24.1931 22.0792C25.7853 20.7894 24.796 19.4762 23.1745 18.1816L22.2 17.4001Z" fill="#E65634"/>
</svg>
