<svg width="16" height="16" viewBox="0 0 16 16" fill="none" xmlns="http://www.w3.org/2000/svg">
<path d="M13.7059 10.8824C12.7527 10.1226 11.7853 9.66235 10.8438 10.421L10.2816 10.8796C9.87028 11.2124 9.1055 12.7677 6.14858 9.5975C3.19229 6.43136 4.95153 5.93839 5.36348 5.60841L5.92876 5.1493C6.86534 4.38889 6.51189 3.43165 5.83639 2.44628L5.42875 1.84944C4.75018 0.866369 4.01126 0.220745 3.07221 0.979999L2.56482 1.3932C2.14979 1.67498 0.989687 2.5909 0.708282 4.33093C0.36961 6.41874 1.43797 8.80955 3.88564 11.4328C6.33024 14.0572 8.72372 15.3754 10.991 15.3525C12.8752 15.3335 14.0132 14.3912 14.3691 14.0486L14.8783 13.6348C15.8149 12.8761 15.233 12.1037 14.2792 11.3421L13.7059 10.8824Z" fill="#E65634"/>
</svg>
