<svg width="30" height="30" viewBox="0 0 30 30" fill="none" xmlns="http://www.w3.org/2000/svg">
<path d="M8.55004 19.7527H26.3377C28.3546 19.7527 30 18.2237 30 16.3493V9.39448C30 9.38832 30 9.37599 30 9.36982C30 9.35132 30 9.33899 30 9.3205C30 9.30816 30 9.29583 29.9934 9.2835C29.9934 9.27117 29.9867 9.25268 29.9867 9.24034C29.9867 9.22801 29.9801 9.21568 29.9801 9.20335C29.9735 9.19102 29.9735 9.17869 29.9668 9.16019C29.9602 9.14786 29.9602 9.13553 29.9536 9.1232C29.9469 9.11086 29.9469 9.09853 29.9403 9.0862C29.9337 9.07387 29.927 9.06154 29.9204 9.04304C29.9138 9.03071 29.9071 9.01838 29.9005 9.01221C29.8938 8.99988 29.8872 8.98755 29.8806 8.97522C29.8739 8.96289 29.8673 8.95672 29.8607 8.94439C29.854 8.93206 29.8408 8.91973 29.8341 8.9074C29.8275 8.89507 29.8209 8.8889 29.8076 8.87657C29.801 8.86424 29.7877 8.85807 29.7811 8.84574C29.7744 8.83341 29.7612 8.82725 29.7545 8.81491C29.7479 8.80258 29.7346 8.79642 29.728 8.79025C29.7147 8.77792 29.7081 8.77176 29.6948 8.75943C29.6815 8.75326 29.6749 8.74093 29.6616 8.73476C29.6484 8.7286 29.6351 8.71627 29.6218 8.7101C29.6086 8.70393 29.6019 8.69777 29.5886 8.6916C29.5754 8.68544 29.5621 8.67927 29.5488 8.66694C29.5356 8.66078 29.5223 8.65461 29.509 8.64844C29.4958 8.64228 29.4825 8.63611 29.4692 8.62995C29.456 8.62378 29.4427 8.61762 29.4294 8.61145C29.4161 8.60528 29.4029 8.60528 29.3896 8.59912C29.3763 8.59295 29.3564 8.58679 29.3432 8.58679C29.3299 8.58679 29.3166 8.58062 29.31 8.58062C29.2901 8.57446 29.2768 8.57446 29.2569 8.57446C29.2503 8.57446 29.2436 8.56829 29.2304 8.56829L6.6857 5.67661V2.75411C6.6857 2.72328 6.6857 2.69245 6.67906 2.66779C6.67906 2.66162 6.67906 2.65546 6.67243 2.64313C6.67243 2.62463 6.66579 2.60613 6.66579 2.58764C6.65916 2.56914 6.65916 2.55681 6.65252 2.53831C6.65252 2.52598 6.64589 2.51981 6.64589 2.50748C6.63925 2.48899 6.63262 2.47049 6.62598 2.45199C6.62598 2.44583 6.61935 2.43349 6.61935 2.42733C6.61271 2.40883 6.60608 2.3965 6.59281 2.378C6.58618 2.37184 6.58618 2.35951 6.57954 2.35334C6.57291 2.34101 6.56627 2.32868 6.553 2.31635C6.54637 2.30402 6.53973 2.29785 6.5331 2.28552C6.52646 2.27319 6.51983 2.26702 6.51319 2.25469C6.50656 2.24236 6.49329 2.23003 6.48666 2.2177C6.48002 2.21153 6.47339 2.20537 6.46675 2.1992C6.45348 2.18687 6.44021 2.17454 6.42694 2.16221C6.42031 2.15604 6.41367 2.14988 6.40704 2.14371C6.39377 2.13138 6.3805 2.11905 6.3606 2.10672C6.35396 2.10055 6.34069 2.09439 6.33406 2.08822C6.32079 2.07589 6.30752 2.06972 6.29425 2.05739C6.27434 2.04506 6.25444 2.03273 6.24117 2.02656C6.23454 2.0204 6.2279 2.0204 6.22127 2.01423C6.19473 2.0019 6.16156 1.98957 6.13502 1.97724L1.24525 0.0658951C0.787455 -0.112908 0.263314 0.084392 0.0709083 0.50982C-0.121498 0.935248 0.0908124 1.42233 0.548606 1.60114L4.88769 3.30285V7.07621V7.67427V12.2615V16.3616V21.5408C4.88769 23.2671 6.28098 24.6976 8.07898 24.9134C7.75388 25.4189 7.56148 26.0108 7.56148 26.6397C7.56148 28.4956 9.18697 30 11.1774 30C13.1678 30 14.7933 28.4894 14.7933 26.6397C14.7933 26.0232 14.6142 25.4374 14.2957 24.9442H22.3502C22.0317 25.4436 21.8526 26.0232 21.8526 26.6397C21.8526 28.4956 23.4781 30 25.4685 30C27.4589 30 29.0844 28.4894 29.0844 26.6397C29.0844 24.79 27.4589 23.2795 25.4685 23.2795H8.55004C7.51503 23.2795 6.67906 22.4964 6.67906 21.5408V19.2841C7.22311 19.5801 7.86667 19.7527 8.55004 19.7527ZM13.0086 26.6336C13.0086 27.5707 12.1859 28.3291 11.184 28.3291C10.1822 28.3291 9.35948 27.5646 9.35948 26.6336C9.35948 25.7026 10.1822 24.938 11.184 24.938C12.1859 24.938 13.0086 25.6964 13.0086 26.6336ZM27.2997 26.6336C27.2997 27.5707 26.477 28.3291 25.4751 28.3291C24.4733 28.3291 23.6506 27.5646 23.6506 26.6336C23.6506 25.7026 24.4733 24.938 25.4751 24.938C26.477 24.938 27.2997 25.6964 27.2997 26.6336ZM26.3377 18.088H8.55004C7.51503 18.088 6.67906 17.305 6.67906 16.3493V12.2492V7.66194V7.35366L28.2086 10.1097V16.3431C28.2086 17.3111 27.366 18.088 26.3377 18.088Z" fill="white"/>
</svg>
