<svg 
 xmlns="http://www.w3.org/2000/svg"
 xmlns:xlink="http://www.w3.org/1999/xlink"
 width="47px" height="43px">
<path fill-rule="evenodd"  fill="rgb(255, 255, 255)"
 d="M44.833,11.248 C44.176,11.896 40.747,14.625 40.241,15.28 L35.482,19.720 L42.774,19.720 L42.774,29.472 C42.767,34.148 39.132,38.42 34.406,38.435 L34.406,42.974 L13.107,42.974 L13.107,38.435 C8.382,38.42 4.747,34.148 4.740,29.472 L4.740,19.720 L6.678,19.720 C3.132,17.717 0.942,13.998 0.937,9.968 L0.937,3.967 C0.937,3.553 1.277,3.217 1.697,3.217 C6.49,3.223 10.18,5.669 11.931,9.523 C13.190,4.504 17.753,0.976 22.996,0.967 L24.518,0.967 C24.938,0.967 25.278,1.302 25.278,1.716 L25.278,9.968 C25.273,13.998 23.83,17.717 19.537,19.720 L22.681,19.720 L33.836,8.719 C34.236,8.230 37.14,4.835 37.672,4.187 C37.752,4.102 37.835,4.20 37.921,3.941 C39.899,2.126 42.993,2.236 44.833,4.187 C44.915,4.262 44.994,4.341 45.71,4.422 C46.917,6.371 46.810,9.428 44.833,11.248 ZM14.629,41.473 L16.150,41.473 L16.150,39.974 L17.671,39.974 L17.671,41.473 L19.193,41.473 L19.193,39.974 L20.714,39.974 L20.714,41.473 L32.885,41.473 L32.885,38.473 L14.629,38.473 L14.629,41.473 ZM11.586,19.406 C8.436,17.418 6.45,14.453 4.788,10.980 L6.214,10.455 C7.265,13.299 9.131,15.780 11.586,17.598 L11.586,14.469 C11.580,9.376 7.606,5.143 2.458,4.746 L2.458,9.968 C2.464,15.61 6.438,19.294 11.586,19.691 L11.586,19.406 ZM23.757,9.968 L23.757,2.466 L22.996,2.466 C17.537,2.472 13.114,6.835 13.107,12.218 L13.107,17.442 C15.30,15.854 18.674,12.278 19.197,7.635 L20.710,7.800 C20.8,14.32 14.534,18.334 13.107,19.358 L13.107,19.720 L13.868,19.720 C19.327,19.713 23.751,15.351 23.757,9.968 ZM6.262,21.220 L6.262,29.472 C6.266,33.613 9.669,36.969 13.868,36.973 L33.645,36.973 C37.845,36.969 41.248,33.613 41.252,29.472 L41.252,21.220 L6.262,21.220 ZM24.833,19.720 L31.809,19.720 L28.321,16.280 L24.833,19.720 ZM29.396,15.219 L33.645,19.409 L36.373,16.719 L32.124,12.529 L29.396,15.219 ZM33.200,11.468 L37.449,15.658 L38.655,14.469 L34.406,10.278 L33.200,11.468 ZM43.757,5.247 C43.699,5.185 43.639,5.126 43.576,5.68 C42.193,3.803 40.31,3.883 38.747,5.247 C38.301,5.687 36.476,7.888 35.428,9.165 L39.785,13.461 C41.79,12.427 43.311,10.628 43.757,10.187 C43.834,10.119 43.907,10.46 43.977,9.970 C45.239,8.606 45.140,6.491 43.757,5.247 ZM40.715,7.187 L42.236,5.687 L43.312,6.748 L41.790,8.248 L40.715,7.187 ZM39.508,10.498 L38.433,9.437 L39.954,7.937 L41.29,8.998 L39.508,10.498 ZM29.842,22.720 L39.731,22.720 L39.731,24.220 L29.842,24.220 L29.842,22.720 ZM26.800,22.720 L28.321,22.720 L28.321,24.220 L26.800,24.220 L26.800,22.720 ZM10.65,33.361 C7.402,30.514 7.765,25.856 7.783,25.659 L9.304,25.783 C9.298,25.825 8.984,29.992 11.189,32.349 C12.286,33.463 13.817,34.55 15.390,33.972 L15.390,35.472 C13.388,35.563 11.445,34.792 10.65,33.361 Z"/>
</svg>